<?xml version="1.0" standalone="no"?>
<!DOCTYPE svg PUBLIC "-//W3C//DTD SVG 20010904//EN"
 "http://www.w3.org/TR/2001/REC-SVG-20010904/DTD/svg10.dtd">
<svg version="1.0" xmlns="http://www.w3.org/2000/svg"
 width="180.000000pt" height="180.000000pt" viewBox="0 0 180.000000 180.000000"
 preserveAspectRatio="xMidYMid meet">
<metadata>
Created by potrace 1.14, written by Peter Selinger 2001-2017
</metadata>
<g transform="translate(0.000000,180.000000) scale(0.100000,-0.100000)"
fill="#000000" stroke="none">
<path d="M852 1293 c-10 -16 -26 -45 -36 -67 -10 -21 -48 -68 -84 -105 -36
-36 -92 -100 -125 -141 -59 -75 -73 -83 -144 -93 -237 -34 -434 -147 -443
-257 -4 -49 0 -62 31 -91 26 -24 40 -29 81 -29 61 0 130 19 121 33 -3 6 -1 7
5 3 7 -4 29 5 49 20 44 32 174 163 212 214 48 64 58 70 131 70 l68 0 -6 -130
-5 -130 40 0 c34 0 39 3 39 23 1 54 15 221 19 226 3 2 27 5 53 5 46 1 47 2 47
31 -1 17 -6 31 -13 31 -7 1 -27 2 -46 3 l-34 1 19 84 c10 46 30 115 45 153 14
37 32 84 39 103 24 64 -25 98 -63 43z m-91 -266 c-5 -12 -11 -42 -15 -66 -3
-24 -7 -45 -8 -47 -4 -3 -66 -6 -90 -5 -29 2 -21 17 43 86 60 64 86 76 70 32z
m-267 -199 c-39 -65 -135 -166 -196 -204 -22 -14 -60 -28 -86 -30 -39 -5 -51
-2 -69 15 -15 14 -21 30 -19 44 3 12 5 27 5 33 3 33 120 113 193 131 102 24
183 29 172 11z"/>
<path d="M1239 1265 c-129 -25 -196 -113 -160 -208 22 -57 139 -130 230 -143
25 -4 49 -8 53 -10 8 -5 -28 -115 -71 -213 -24 -52 -30 -76 -22 -84 19 -19
254 -12 313 10 63 22 132 87 160 151 30 67 33 177 7 246 -65 176 -303 293
-510 251z m176 -41 c95 -29 189 -110 229 -198 62 -136 44 -288 -41 -343 -22
-15 -48 -18 -135 -17 -59 0 -110 3 -113 6 -3 3 10 46 30 96 19 50 37 101 38
114 4 22 33 35 89 40 28 2 45 23 27 33 -5 4 -28 4 -51 0 l-41 -7 7 28 c3 16 9
57 13 92 l6 62 -30 0 c-28 0 -30 -2 -43 -67 -21 -112 -22 -113 -71 -102 -111
25 -167 91 -160 190 2 24 49 68 85 78 31 9 123 6 161 -5z"/>
<path d="M1006 888 c-30 -42 -15 -74 39 -84 48 -9 80 51 46 85 -27 27 -66 27
-85 -1z"/>
</g>
</svg>
